<?xml version="1.0" encoding="UTF-8" standalone="no"?>
<!-- Created with Inkscape (http://www.inkscape.org/) -->

<svg
        xmlns:inkscape="http://www.inkscape.org/namespaces/inkscape"
        xmlns:sodipodi="http://sodipodi.sourceforge.net/DTD/sodipodi-0.dtd"
        width="210mm"
        height="297mm"
        viewBox="0 0 210 297"
        version="1.1"
        id="svg1"
        xml:space="preserve"
        inkscape:version="1.3.2 (091e20e, 2023-11-25)"
        sodipodi:docname="mvmgolanglogo.svg"
        xmlns="http://www.w3.org/2000/svg"><sodipodi:namedview
     id="namedview1"
     pagecolor="#ffffff"
     bordercolor="#000000"
     borderopacity="0.25"
     inkscape:showpageshadow="2"
     inkscape:pageopacity="0.0"
     inkscape:pagecheckerboard="0"
     inkscape:deskcolor="#d1d1d1"
     inkscape:document-units="mm"
     inkscape:zoom="0.48756441"
     inkscape:cx="-151.77482"
     inkscape:cy="676.83365"
     inkscape:window-width="1920"
     inkscape:window-height="1016"
     inkscape:window-x="1318"
     inkscape:window-y="27"
     inkscape:window-maximized="1"
     inkscape:current-layer="layer1"
     showgrid="false" />
    <defs
            id="defs1"><inkscape:path-effect
       effect="bspline"
       id="path-effect70"
       is_visible="true"
       lpeversion="1.3"
       weight="33.333333"
       steps="2"
       helper_size="0"
       apply_no_weight="true"
       apply_with_weight="true"
       only_selected="false"
       uniform="false" />
        <inkscape:path-effect
                effect="bspline"
                id="path-effect69"
                is_visible="true"
                lpeversion="1.3"
                weight="33.333333"
                steps="2"
                helper_size="0"
                apply_no_weight="true"
                apply_with_weight="true"
                only_selected="false"
                uniform="false"/></defs>
    <g
            inkscape:label="Layer 1"
            inkscape:groupmode="layer"
            id="layer1"><path
       style="fill:#00ffff;fill-opacity:1;stroke:#009d9d;stroke-width:3.1;stroke-dasharray:none;stroke-opacity:1"
       d="m 143.24707,94.925472 c -11.84746,0.126972 -27.12181,6.101228 -41.89098,17.188618 -6.324941,4.7482 -7.286077,5.54289 -7.868256,6.50503 -0.30151,0.49829 -1.434547,1.77946 -2.517676,2.84737 -1.969318,1.94167 -1.969321,1.94167 -0.911572,4.36562 10.464074,23.97953 10.193284,52.26443 -0.674378,70.39467 -1.242009,2.07202 -3.709994,5.63423 -3.830774,5.43791 -5.601604,-9.10547 -7.19625,-13.12512 -9.269718,-19.44377 -0.03981,-0.1213 -0.301332,0.52992 -0.469222,1.37821 -0.16789,0.84828 -0.478154,2.19739 -0.689364,2.99775 -0.21121,0.80037 -0.68694,2.64584 -1.0573,4.10104 -0.370369,1.45521 -1.070104,3.89599 -1.554943,5.42396 -0.48484,1.52797 -0.966933,3.19485 -1.071253,3.70417 -0.10433,0.50932 -0.473532,1.46181 -0.820622,2.11666 -0.347089,0.65484 -1.463093,3.01214 -2.479952,5.23844 -0.179531,0.39307 -0.385774,0.76178 -0.571024,1.15084 0.01277,0.0107 0.02781,0.0222 0.03979,0.0326 0.25976,0.22386 0.593193,0.60638 1.977936,2.03178 7.521169,11.96175 12.736778,18.00928 25.138755,24.88131 7.309903,3.84304 8.485103,4.93813 8.254273,7.69152 -0.43914,5.23799 -5.50873,10.55723 -16.310629,17.11368 -3.537807,2.14736 -3.645956,2.23665 -3.015837,2.48461 0.952419,0.3748 13.851741,0.24722 17.297656,-0.17105 31.20074,-3.78721 59.95158,-24.65348 68.71415,-49.87034 2.60636,-7.50062 2.5833,-7.16657 2.5833,-37.50469 l 0.0445,-41.67188 c -0.38971,-13.33492 -4.00956,-22.82781 -12.27161,-32.17943 -3.79195,-4.292027 -9.66672,-6.320761 -16.7752,-6.244578 z"
       id="path70"
       sodipodi:nodetypes="cssssscssssssssccsssssssccscc" />
        <path
                style="fill:#00a1a1;fill-opacity:1;stroke:none"
                d="m 93.405246,39.670739 c -2.668538,0.04124 -4.64849,0.489726 -5.460131,1.380794 -0.70958,0.77902 -0.709593,0.778986 -5.423959,0.63252 -7.577132,-0.235408 -10.138399,0.657212 -10.138399,3.533117 0,1.475558 2e-6,1.475808 -0.992187,1.3193 -9.552961,-1.506902 -14.850326,0.790363 -12.898438,5.593973 0.3638,0.895322 0.661438,1.719898 0.661458,1.83193 10e-6,0.112035 -2.113346,0.203605 -4.696354,0.203605 -5.032305,0 -6.635725,0.24691 -8.872843,1.367875 -2.845577,1.425855 -2.876568,1.857013 -0.4408,6.040458 2.101898,3.610006 2.499371,3.16904 -3.452503,3.828707 -11.588348,1.284377 -13.269295,4.188758 -6.536552,11.293885 1.989978,2.100031 1.99157,2.067216 -0.131258,2.324405 -9.053091,1.096821 -15.706782,5.5068 -13.449825,8.914185 0.7961,1.201899 1.438535,1.843005 5.102531,5.091162 2.352898,2.085868 2.401302,2.19692 1.058334,2.43086 -3.371827,0.587339 -10.938547,5.821665 -11.951726,8.267705 -0.785149,1.8955 0.922673,3.82896 5.527828,6.25854 4.635896,2.4458 4.858948,2.69434 3.11919,3.47472 -5.113775,2.29385 -12.490977,10.60634 -11.333159,12.76976 0.52948,0.98933 3.245048,2.0683 10.130131,4.0256 2.389148,0.6792 2.409075,0.44694 -0.312642,3.64784 -5.693354,6.69573 -9.866917,15.83513 -7.615039,16.67546 1.532938,0.57205 13.897035,0.4914 16.628442,-0.10852 1.094029,-0.24029 1.008554,0.0592 -0.956014,3.33985 -8.193522,13.68224 -11.877744,28.63897 -10.506335,42.65528 0.3298,3.37066 0.362574,3.39669 2.900081,2.30942 7.257363,-3.10964 15.855862,-9.32757 19.759518,-14.28905 1.647938,-2.0945 1.709941,-1.92126 1.419551,3.9579 -0.521319,10.55439 1.808624,25.64723 5.169711,33.48942 1.380638,3.22135 3.33063,6.99183 3.615799,6.99183 1.56148,0 10.625777,-11.94341 13.013654,-17.08685 -0.250217,-0.5588 -0.430298,-1.33895 -0.84127,-1.77092 -0.127909,-0.14389 -0.15971,-0.14373 -0.1757,-0.15968 l -8.817549,13.06432 c -1.059209,1.16417 -2.109005,2.39512 -2.332675,2.73575 -0.520339,0.79242 -0.628356,0.60074 -2.441194,-4.32583 -4.683656,-12.72827 -6.668565,-33.01286 -4.374927,-44.712 0.51725,-2.63838 0.128847,-2.6988 -1.154451,-0.17932 -3.096917,6.08015 -10.555505,13.03866 -19.186426,17.89968 -5.027405,2.83148 -4.514498,3.37544 -4.488098,-4.75578 0.02803,-8.62487 0.534445,-11.81634 3.033923,-19.12183 0.960179,-2.80642 1.577261,-4.27565 4.120679,-9.80767 0.491019,-1.06799 0.892968,-1.99222 0.892968,-2.05362 0,-0.32173 4.248921,-7.11606 5.4653,-8.73952 1.455768,-1.94293 1.800345,-2.89802 0.950846,-2.6355 -4.754495,1.46928 -18.835363,2.31191 -19.541443,1.16944 -0.865069,-1.3997 5.143207,-11.29846 9.570992,-15.76855 1.480539,-1.49467 2.617695,-2.75936 2.527495,-2.81016 -0.09023,-0.0508 -1.116312,-0.30054 -2.280481,-0.55552 -3.575357,-0.7831 -9.669774,-3.07308 -11.089763,-4.16667 -1.461628,-1.12566 6.198706,-8.23472 13.206429,-12.2561 0.7335,-0.42092 0.332944,-0.79846 -2.066023,-1.94717 -4.681686,-2.24175 -9.114927,-5.58635 -8.784477,-6.6275 0.479269,-1.51004 6.17656,-5.222843 11.034985,-7.191291 1.790158,-0.725309 3.355661,-1.417234 3.478341,-1.537374 0.12267,-0.12014 -0.948892,-1.106892 -2.38125,-2.192631 -2.678657,-2.030438 -5.981612,-5.302994 -6.499862,-6.440434 -0.807089,-1.77136 4.700791,-4.35121 12.378573,-5.797579 4.786305,-0.901662 4.704822,-0.836418 3.017904,-2.412256 -0.76034,-0.710278 -1.840305,-1.946238 -2.399854,-2.746602 -0.559549,-0.800363 -1.556083,-2.150288 -2.214852,-2.999817 -2.566117,-3.309169 0.30063,-4.778166 11.194149,-5.73505 4.973135,-0.436839 4.96176,-0.426581 3.096452,-2.692342 -0.64919,-0.788571 -1.555411,-2.320392 -2.013831,-3.403927 -0.458409,-1.083536 -0.952524,-2.117486 -1.098124,-2.297534 -1.208129,-1.49396 1.836273,-2.259355 9.517765,-2.393136 7.487173,-0.130396 7.028903,0.150689 5.493205,-3.367236 -1.215879,-2.785281 -1.207023,-3.33429 0.06305,-3.961515 1.355179,-0.669256 8.149904,-0.858443 11.575521,-0.322461 2.762187,0.432178 3.056082,0.304056 2.288232,-0.997355 -2.169597,-3.677188 4.61608,-5.675073 12.322763,-3.628203 1.196688,0.317837 2.254227,0.577743 2.349727,0.577743 0.0956,0 0.112107,-0.543898 0.03721,-1.208712 -0.17918,-1.589636 0.247285,-1.75905 4.433321,-1.76165 11.22037,-0.007 24.28286,5.392917 35.71875,14.766024 13.15842,11.043643 26.22807,20.492016 33.35197,36.926428 1.21086,3.253417 1.15709,3.185268 2.34766,2.988448 1.35455,-0.223929 1.56543,-0.35013 1.23972,-0.74259 -0.14325,-0.17261 -0.90134,-1.73937 -1.68414,-3.481958 C 154.50871,68.493416 123.45818,47.119353 110.26727,42.69536 104.21323,40.664947 97.85281,39.602 93.405246,39.670739 Z"
                id="path40"
                sodipodi:nodetypes="ssssssssssssssscsscssssscssssssccccssssssssssssssssssssssssssssssssssssssccsssscss"/>
        <path
                style="fill:#550000;stroke:#000000"
                d="m 115.35754,60.043643 c -1.13999,-1.578843 -7.91962,-6.137708 -14.19876,-9.547756 -1.755075,-0.953132 -2.860375,-2.003916 -2.860375,-2.719277 0,-0.204454 -0.24055,-0.843241 -0.53455,-1.419527 -0.68835,-1.349277 -0.31243,-1.366663 5.005765,-0.231505 7.22712,1.542615 16.15252,5.881821 23.50847,11.42896 1.64173,1.238033 1.60526,1.123112 0.53247,1.677873 -0.47112,0.243629 -1.17073,0.779247 -1.55467,1.190263 -0.69809,0.747301 -0.69809,0.747301 -1.45851,0.09264 -2.13217,-1.835609 -4.35096,-1.983438 -5.85045,-0.389791 -1.24,1.317861 -1.58664,1.306901 -2.58939,-0.08188 z"
                id="path68"/>
        <path
                style="fill:#550000;stroke:#000000"
                d="m 104.61794,63.871581 c -0.34704,-0.26824 -1.19295,-0.676507 -1.87978,-0.907261 -0.68683,-0.230754 -2.949025,-1.542625 -5.027085,-2.915269 -2.07806,-1.372644 -5.93727,-3.588758 -8.57601,-4.924698 -5.38486,-2.726249 -5.33273,-2.684513 -6.31138,-5.052563 -0.39091,-0.945886 -0.89357,-2.005705 -1.11702,-2.355155 -0.74491,-1.164934 6.53697,-0.39663 11.30007,1.19226 2.6306,0.877525 3.95907,1.516838 9.260425,4.456494 6.92906,3.842242 14.71476,10.035883 10.12031,8.05086 -2.25817,-0.97564 -4.88974,-0.198859 -6.05344,1.786844 -0.76798,1.310471 -0.84612,1.340907 -1.71609,0.668488 z"
                id="path67"/>
        <path
                style="fill:#550000;stroke:#000000"
                d="m 90.096315,69.329827 c -1.23692,-0.874405 -3.73724,-2.305263 -5.55625,-3.179683 -15.05076,-7.235087 -14.24064,-6.641856 -16.83029,-12.324457 -0.97927,-2.148862 -0.73161,-2.19596 7.02848,-1.336644 6.05605,0.670619 15.8614,4.912034 21.89144,9.469397 2.81178,2.125077 2.80956,2.118182 0.93616,2.907323 -2.75965,1.162458 -4.12833,2.69737 -4.67983,5.248213 -0.23267,1.07612 -0.10902,1.110876 -2.78971,-0.784149 z"
                id="path66"/>
        <path
                style="fill:#800000;stroke:#000000"
                d="m 80.112145,77.974325 c -0.76186,-0.20518 -1.95762,-0.663117 -2.65723,-1.017638 -0.69962,-0.354521 -3.52909,-1.562537 -6.28771,-2.68448 -2.75862,-1.121943 -6.02771,-2.451214 -7.26463,-2.953935 -4.85373,-1.972687 -5.40096,-2.419479 -8.19944,-6.6944 -0.6192,-0.945885 -1.47683,-2.241213 -1.90583,-2.878507 -2.68724,-3.99194 13.33636,-1.712863 23.46672,3.337731 9.84331,4.90748 10.55656,5.417963 8.7351,6.251857 -3.13532,1.435396 -4.10489,2.718803 -4.10489,5.433593 0,0.887512 -0.0893,1.605823 -0.19844,1.596246 -0.10914,-0.0096 -0.82178,-0.185287 -1.58365,-0.390467 z"
                id="path65"/>
        <path
                style="fill:#800000;stroke:#000000"
                d="m 66.680695,86.305282 c -2.03729,-0.573451 -5.01385,-1.399744 -6.61458,-1.836206 -10.99827,-2.998843 -11.08629,-3.046625 -16.3024,-8.849914 -3.27624,-3.645049 -3.28624,-3.401963 0.16988,-4.132073 8.07947,-1.706799 14.07719,-0.729224 23.53705,3.836335 8.45383,4.080024 7.69956,3.499508 6.37994,4.910289 -1.98357,2.120594 -2.30379,3.088374 -1.90433,5.755262 0.26477,1.767703 -0.0434,1.786217 -5.26556,0.316307 z"
                id="path64"/>
        <path
                style="fill:#800000;stroke:#000000"
                d="m 59.536945,97.552997 c -0.23614,-0.091 -7.1493,-0.77414 -14.61612,-1.44423 -1.49043,-0.13375 -2.97871,-0.38588 -3.30729,-0.56027 -2.45381,-1.30237 -10.92091,-7.999264 -10.65589,-8.428075 0.45237,-0.73195 7.59784,-2.528773 11.51368,-2.895264 5.5317,-0.517724 10.18777,0.314291 18.38854,3.285939 1.89177,0.68551 3.64794,1.30708 3.9026,1.38127 0.59145,0.17231 0.58643,0.20852 -0.16866,1.2153 -1.71662,2.2888 -1.98889,3.51402 -1.22668,5.51999 0.28759,0.75687 0.4709,1.42812 0.40736,1.49166 -0.35508,0.35508 -3.58425,0.68557 -4.23754,0.43368 z"
                id="path63"/>
        <path
                style="fill:#800000;stroke:none"
                d="m 103.09218,103.00779 c -0.54949,-0.33961 4.97747,-4.261083 9.75831,-6.923703 19.16232,-10.67218 46.85815,-10.532113 48.78599,0.24673 0.15572,0.87061 0.13433,0.85856 -1.52599,-0.85996 -6.37365,-6.59708 -22.3699,-7.954702 -35.22146,-2.98929 -1.89177,0.73092 -4.46656,1.70738 -5.72175,2.16992 -1.2552,0.46253 -3.69598,1.65716 -5.42396,2.65473 -1.72798,0.99756 -3.7371,2.13283 -4.46471,2.52283 -0.7276,0.389993 -2.35023,1.306143 -3.60583,2.035893 -1.25561,0.72975 -2.41687,1.24403 -2.5806,1.14285 z"
                id="path62"/>
        <path
                style="fill:#00ffff;stroke:#000000"
                d="m 132.16507,81.577505 c 0,-0.279876 0.27388,-0.845423 0.60862,-1.256771 0.65669,-0.806991 3.8893,-5.785058 3.8893,-5.989351 0,-0.500173 -9.43243,0.535449 -12.85914,1.411855 -1.12319,0.287265 -2.34369,0.5223 -2.71222,0.5223 -0.40958,0 1.36638,1.018986 4.56868,2.621358 2.8813,1.441746 5.3688,2.751434 5.52779,2.910416 0.45537,0.455377 0.97697,0.338024 0.97697,-0.219807 z"
                id="path61"/>
        <path
                style="fill:#00ffff;stroke:#000000"
                d="m 114.94342,84.599913 c 0.45327,-1.600729 1.25612,-3.895762 1.7841,-5.100073 1.29528,-2.954476 0.65201,-2.782858 -10.42547,2.781388 -7.370175,3.702059 -7.377935,3.758134 -0.59531,4.306319 4.22128,0.341172 6.4821,0.703713 7.40083,1.186784 0.83317,0.438076 0.79346,0.506746 1.83585,-3.174418 z"
                id="path60"/>
        <path
                style="fill:#00ffff;stroke:#000000"
                d="m 101.40297,98.599547 c 1.13015,-0.81318 2.88825,-1.96113 3.90689,-2.55101 1.01865,-0.58988 2.62599,-1.57493 3.57188,-2.18902 1.66468,-1.08072 6.94799,-3.7221 10.01199,-5.00546 1.87375,-0.78482 8.53384,-2.872061 11.09617,-3.477486 1.05923,-0.250274 1.98076,-0.543849 2.04784,-0.652389 0.21533,-0.348408 -12.40919,-6.914314 -12.65718,-6.582896 -0.77401,1.034372 -3.34199,8.923215 -3.48046,10.691961 -0.10497,1.34085 -0.45154,1.4089 -3.52259,0.6917 -2.37895,-0.55557 -9.78687,-1.61774 -11.28264,-1.61774 -0.92042,0 -1.439885,2.61143 -1.907855,9.59114 -0.20368,3.037803 -0.36448,2.957893 2.215955,1.1012 z"
                id="path59"/>
        <path
                style="fill:#800000;stroke:#000000"
                d="m 95.320565,105.03898 c -0.071,-0.32742 -0.20811,-0.78131 -0.30467,-1.00864 -0.12835,-0.3022 0.28762,-0.72901 1.54718,-1.5875 2.43637,-1.66057 2.43949,-1.65655 -1.30738,-1.68516 -2.38125,-0.0182 -2.38125,-0.0182 -2.46497,-0.74579 -0.0913,-0.793643 -0.32085,-0.739403 3.65559,-0.863843 0.92605,-0.029 0.92605,-0.029 1.10349,-2.79064 0.0976,-1.51891 0.32226,-4.04512 0.49925,-5.6138 0.40229,-3.565482 0.51104,-3.511226 -2.43803,-1.21639 -4.55657,3.54572 -5.37489,4.22339 -6.90749,5.72018 -1.17612,1.14865 -1.59687,1.41765 -1.83885,1.17567 -0.17258,-0.17258 -0.52809,-0.31378 -0.79003,-0.31378 -1.81861,0 8.24982,-9.216354 14.876015,-13.617069 13.25734,-8.804724 31.37669,-13.020839 42.59665,-9.911631 3.00096,0.83161 6.35302,3.093614 4.98367,3.363037 -0.20954,0.04123 -0.57287,0.751465 -1.03769,1.447149 -2.15585,3.226637 -0.13129,5.0711 1.64515,3.919816 1.79432,-1.162873 2.92623,-1.300598 4.23847,0.761437 0.96992,1.52412 0.95904,1.560568 -0.41948,1.405188 -2.61736,0.998969 -4.03618,0.850131 -0.15487,2.330333 3.46209,1.319727 4.31903,1.738413 4.92787,2.40766 0.51676,0.56804 1.15754,1.61368 1.15754,1.88892 0,0.0633 -1.35453,-0.46782 -3.01006,-1.1802 -16.23079,-6.984089 -38.22279,-1.42803 -58.071215,14.671113 -1.03925,0.84294 -1.88955,1.64661 -1.88955,1.78594 0,0.50717 -0.47098,0.23718 -0.59659,-0.342 z"
                id="path58"/>
        <path
                style="fill:#d40000;stroke:#000000"
                d="m 36.939485,110.64084 c -3.96891,-0.77999 -12.37375,-5.86513 -11.23986,-6.80039 4.94553,-4.079183 14.63923,-6.123163 23.50812,-4.956843 7.88164,1.03649 9.1227,1.414873 8.57765,2.615183 -0.72133,1.58849 -0.65973,3.62399 0.15901,5.25407 1.02452,2.03977 0.55421,2.27522 -5.69395,2.85049 -1.81901,0.16748 -5.55091,0.53358 -8.29311,0.81356 -5.4408,0.5555 -5.34609,0.55248 -7.01786,0.22393 z"
                id="path57"/>
        <path
                style="fill:#00ffff;stroke:#000000"
                d="m 84.705195,117.32669 c 3.4716,-1.77107 5.1914,-7.22491 3.22817,-10.23719 -2.77524,-4.25818 -7.59333,-5.11427 -11.15977,-1.98289 -6.19402,5.43842 0.62658,15.94682 7.9316,12.22008 z"
                id="path56"/>
        <path
                style="fill:#d4aa00;stroke:#000000"
                d="m 78.851525,121.02758 c -5.47603,-1.63743 -9.00159,-7.80408 -7.77206,-13.59433 2.46532,-11.609993 18.56789,-11.801203 21.01632,-0.24955 1.89165,8.92473 -5.1344,16.26887 -13.24426,13.84388 z"
                id="path55"/>
        <path
                style="fill:#ffff00;stroke:#000000;stroke-width:0.725317"
                d="m 79.825625,117.80475 c -3.91695,-1.20431 -6.43876,-5.73977 -5.55929,-9.99841 1.76343,-8.538953 13.28146,-8.679583 15.0328,-0.18354 1.35308,6.56399 -3.67259,11.96548 -9.47351,10.18195 z"
                id="path55-8"/>
        <path
                style="fill:#1a1a1a;stroke:#000000;stroke-width:0.377918;fill-opacity:1"
                d="m 83.032544,115.17862 c -2.038817,-0.62813 -3.351448,-2.99367 -2.893673,-5.21484 0.917885,-4.45363 6.913149,-4.52698 7.824741,-0.0957 0.704293,3.42356 -1.911624,6.2408 -4.931068,5.31057 z"
                id="path55-8-5"/>
        <path
                style="fill:#00ffff;stroke:#00aaaa;stroke-width:1.7;stroke-dasharray:none;stroke-opacity:1"
                d="m 173.65293,121.80665 c -0.061,-0.21647 -0.23477,-1.11059 -0.38607,-1.98695 -0.69086,-4.00188 -1.82968,-8.78778 -5.17125,-13.16202 -3.04351,-3.98407 -4.47946,-4.76925 -4.52907,-5.17793 -0.10567,-0.87065 4.51257,-2.404849 6.82932,-2.321559 9.09977,0.327188 12.63659,8.268639 7.83262,17.587099 -1.05874,2.05369 -4.38585,5.73406 -4.57555,5.06136 z"
                id="path54"
                sodipodi:nodetypes="sssssss"/>
        <path
                style="fill:#00a9a9;stroke:none;stroke-width:0.609559;fill-opacity:1"
                d="m 173.00555,116.33723 c -0.0395,-0.12073 -0.13546,-0.6207 -0.24559,-1.10479 -0.4614,-2.02821 -1.28863,-3.95107 -3.38492,-7.36867 -1.57319,-2.56482 -2.97898,-2.72032 -3.00946,-2.94699 -0.0649,-0.48287 3.05195,-1.24098 4.60951,-1.15027 6.11778,0.35635 8.44034,4.81038 5.14356,9.86384 -0.72658,1.11373 -2.99027,3.08202 -3.1131,2.70688 z"
                id="path54-0"
                sodipodi:nodetypes="sssssss"/>
        <path
                style="fill:#d40000;stroke:#000000"
                d="m 34.930695,126.63192 c -4.1536,-0.58232 -11.77396,-2.77862 -11.77396,-3.39343 0,-0.69419 6.61424,-5.41773 9.6573,-6.89673 6.66758,-3.24062 23.56315,-5.65865 22.87936,-3.27441 -0.6684,2.33058 -0.25894,4.19697 1.24018,5.65289 1.21122,1.17633 0.87143,1.61108 -1.8796,2.40492 -4.07068,1.17463 -10.10364,3.09154 -13.13543,4.17364 -3.23828,1.15581 -5.36229,1.56102 -6.98785,1.33312 z"
                id="path53"/>
        <path
                style="fill:#d40000;stroke:#000000"
                d="m 24.638755,144.57141 c -0.51606,-0.835 5.58877,-8.90518 8.49441,-11.22904 4.09684,-3.27655 12.30636,-6.93134 19.12774,-8.51546 3.10188,-0.72035 3.10134,-0.72061 3.21558,1.54174 0.0927,1.83551 0.15868,2.01565 1.13377,3.09496 1.03535,1.14601 1.03535,1.14601 0.28177,1.68907 -2.3721,1.70945 -4.98469,3.73195 -6.56953,5.08571 -7.25842,6.20008 -12.11683,8.20027 -20.57827,8.47199 -3.50872,0.11268 -4.9746,0.0728 -5.10547,-0.13897 z"
                id="path52"/>
        <path
                style="fill:#f9f9f9;stroke:#000000"
                d="m 78.460465,177.58092 c 0.003,-0.20726 0.25386,-0.91263 0.55703,-1.56747 2.73293,-5.90309 2.24842,-8.07871 -0.86027,-3.86291 -1.34684,1.82649 -1.12315,-1.93638 0.28398,-4.7773 1.03799,-2.09563 2.43193,-5.64729 2.21643,-5.64729 -0.36363,0 -1.85264,0.95669 -2.74795,1.76555 -1.83441,1.65727 -1.59735,-3.12118 0.27774,-5.59851 1.42362,-1.88086 3.97139,-5.76506 3.97139,-6.05457 0,-0.25935 -2.01739,0.80926 -3.77031,1.99713 -0.83674,0.56702 -1.52081,0.93722 -1.52015,0.82266 0.038,-6.61434 4.7763,-27.25421 6.7496,-29.40121 0.3527,-0.38374 0.49223,4.18906 0.82212,26.94395 0.0918,6.33016 0.24111,12.97299 0.33186,14.76185 0.18121,3.57187 -0.0885,4.62906 -1.40046,5.48867 -0.3464,0.22697 -1.2868,1.27009 -2.08978,2.31805 -1.74012,2.271 -2.82964,3.35673 -2.82123,2.8114 z"
                id="path51"/>
        <path
                style="fill:#b3b3b3;stroke:#000000"
                d="m 39.488645,178.46085 c -1.33453,-5.5614 -1.41757,-5.05949 1.74094,-10.52291 1.5125,-2.61623 3.26252,-5.64975 3.88893,-6.74116 0.62641,-1.0914 1.97445,-3.29406 2.99563,-4.89479 1.02119,-1.60073 2.47112,-3.92245 3.22207,-5.15937 1.10392,-1.81831 11.53876,-17.30508 11.92949,-17.70504 0.33176,-0.33959 0.32166,0.31694 -0.0227,1.47659 -0.21626,0.72823 -0.57849,2.32605 -0.80496,3.55073 -0.59925,3.24059 -1.0738,4.54769 -2.77762,7.65063 -2.2773,4.14736 -5.01903,10.46326 -6.34629,14.61943 -0.68457,2.14365 -0.71128,2.13403 -1.97993,-0.71314 -1.56489,-3.51201 -2.00092,-0.67867 -0.76273,4.9563 0.44886,2.04273 0.44886,2.04273 -0.29482,3.93825 -0.84917,2.16439 -0.89325,2.14884 -2.73898,-0.96587 -1.07956,-1.82179 -1.01204,-1.88648 -1.3876,1.32941 -0.40528,3.47039 -2.57167,9.39768 -2.60613,7.13041 -0.0267,-1.75863 -0.29489,-3.30729 -0.57269,-3.30729 -0.37484,0 -1.21933,1.90955 -1.40412,3.175 -0.79227,5.42542 -1.19809,5.85162 -2.07847,2.18282 z"
                id="path50"/>
        <path
                style="fill:#f9f9f9;stroke:#000000"
                d="m 30.565075,182.36345 c 0.389511,-1.70926 0.549973,-3.48962 1.05833,-5.14693 -0.249762,-2.36944 3.423952,-5.23289 2.435931,-5.01604 -1.185876,0.94161 -3.565128,1.78107 -3.699751,2.49005 l 3.347273,-6.30936 c 0.873304,-0.4471 6.438497,-7.10182 3.899396,-6.93342 -1.120591,-0.0852 -4.375629,1.24821 -2.691771,-0.96042 0.787404,-2.25763 2.718948,-3.72719 5.062015,-4.03656 1.261165,-0.56219 4.845553,-0.70246 4.57387,-2.05689 -1.354296,-0.86191 -5.00203,0.67336 -4.906048,-1.28115 3.12941,-4.68665 6.716606,-9.10486 10.92746,-12.87237 3.601801,-3.1819 7.258286,-6.47899 11.627848,-8.57174 0.972428,-0.5361 1.885928,-0.4054 0.630241,0.51174 -3.296874,3.52665 -5.859117,7.66115 -8.741256,11.52003 -3.186753,4.39054 -5.834911,9.12854 -8.69789,13.72697 -2.395842,4.33705 -4.971388,8.57095 -7.264264,12.96437 l -4.507383,8.04544 c -0.800951,1.20179 -1.498352,3.79199 -2.275261,3.62537 0.766584,0.90154 -1.065825,2.84059 -0.77874,0.30091 z"
                id="path49"
                sodipodi:nodetypes="ccccccccccccccccccc"/>
        <path
                style="fill:#b3b3b3;stroke:#000000"
                d="m 85.702685,191.16084 c 0.0997,-2.29195 0.29661,-5.95312 0.43761,-8.13593 0.14099,-2.18281 0.17801,-5.4868 0.0823,-7.34219 0.374882,-6.5957 -0.118323,-14.39962 -0.19783,-21.89427 -0.0876,-9.09505 -0.23783,-19.48325 -0.33377,-23.08489 -0.15946,-5.98679 -0.13687,-6.54844 0.26338,-6.54844 0.24079,0 0.43854,0.20836 0.43943,0.46302 9e-4,0.25466 0.1919,0.82021 0.42445,1.25677 3.04401,5.71455 8.89827,28.97187 7.29271,28.97187 -0.0552,0 -0.66754,-0.50601 -1.36069,-1.12447 -1.3988,-1.24808 -4.37366,-3.04134 -4.17154,-2.51462 0.071,0.18496 1.47775,2.12121 3.12616,4.30279 2.74454,3.63223 4.47733,8.59672 3.00057,8.59672 -0.0653,0 -0.77425,-0.53397 -1.5755,-1.1866 -1.44229,-1.17475 -2.99324,-2.11697 -3.17898,-1.93124 -0.0529,0.0529 0.86686,1.867 2.0439,4.03133 2.14007,3.93515 2.14007,3.93515 1.99437,5.81031 -0.2016,2.59444 -0.39222,3.03519 -0.95178,2.20068 -0.9141,-1.36326 -2.8865,-3.40609 -3.04345,-3.15214 -0.31094,0.50312 0.6728,3.88334 1.71089,5.8788 1.457046,2.80075 -1.964707,12.73101 -6.01488,19.56969 -0.0927,0 -0.087,-1.87523 0.0127,-4.16719 z"
                id="path48"
                sodipodi:nodetypes="csccssscssssssssssssccc"/>
        <path
                style="fill:#f9f9f9;stroke:#000000"
                d="m 52.148775,197.7987 c -0.0814,-0.21223 0.54653,-1.24162 1.45436,-2.38402 1.31038,-1.64898 3.42027,-5.20749 3.42027,-5.76858 0,-0.68014 -2.51172,0.56135 -3.99998,1.97711 -0.61228,0.58244 -1.1697,1.05899 -1.23871,1.05899 -0.1892,0 0.20804,-4.88585 0.47209,-5.80656 0.22235,-0.77526 4.6511,-7.04237 5.43827,-7.69566 1.88698,-1.56606 -2.91311,-0.0276 -4.97551,1.59464 -0.8878,0.69834 -0.90629,0.5615 -0.33067,-2.44665 0.43844,-2.29123 0.28938,-2.11507 6.42045,-7.58776 2.13101,-1.90217 2.79495,-2.66426 2.32114,-2.66426 -0.41469,0 -3.93352,1.47737 -5.60517,2.35332 -2.31637,1.21378 -2.27024,1.67001 -0.46528,-4.60228 3.14654,-10.93431 8.86612,-22.4225 13.82746,-27.77344 1.76881,-1.90771 1.73249,-1.53714 -0.91566,9.34255 -3.18463,13.08381 -6.46977,30.2027 -7.49726,39.06839 -0.36523,3.15133 -0.9546,4.80848 -1.78421,5.0167 -0.32228,0.0809 -1.03755,0.70519 -1.58948,1.38733 -2.17026,2.68226 -4.80728,5.3076 -4.95211,4.93018 z"
                id="path47"/>
        <path
                style="fill:#b3b3b3;stroke:#000000"
                d="m 56.853345,218.21449 c 0.0881,-0.29104 0.46426,-2.37464 0.8358,-4.63021 0.37154,-2.25557 0.90048,-5.29167 1.17541,-6.74687 0.27494,-1.45521 0.68991,-4.21799 0.92217,-6.13952 0.23226,-1.92152 0.72907,-4.83856 1.10401,-6.48229 0.37495,-1.64374 0.7126,-3.64345 0.75034,-4.44382 0.0377,-0.80036 0.55889,-3.89599 1.15813,-6.87916 0.59924,-2.98318 1.27841,-6.61459 1.50927,-8.0698 0.55161,-3.47693 2.74018,-14.363 4.3884,-21.82812 0.72292,-3.27422 1.73216,-7.96923 2.24277,-10.43335 1.29967,-6.27208 1.36377,-6.31977 2.51346,-1.86977 0.56294,2.1789 0.60485,2.78594 0.49328,7.14375 -0.0671,2.61937 -0.12153,9.70517 -0.12102,15.74621 9.2e-4,10.98372 9.2e-4,10.98372 -2.19745,8.83427 -4.02229,-3.93277 -4.46379,-3.72001 -2.11898,1.02116 3.70654,7.49455 3.54407,6.88547 2.73704,10.2606 -1.13081,4.72923 -0.99654,4.57619 -2.41369,2.75118 -2.53081,-3.25917 -3.10389,-2.33375 -1.01152,1.63342 1.26753,2.40327 1.70664,4.40019 1.23764,5.62837 -0.21653,0.56702 -0.3437,0.39149 -1.24594,-1.71979 -1.55972,-3.64976 -1.49788,-3.56859 -1.89044,-2.48106 -0.4586,1.27051 -0.44467,4.77808 0.0278,7.00887 -0.02311,7.4301 -4.45662,14.0651 -8.56107,19.97614 -1.65103,2.31429 -1.74854,2.42351 -1.53541,1.71979 z"
                id="path46"
                sodipodi:nodetypes="ssssssssssscssssssssscss"/>
        <path
                style="fill:#f9f9f9;stroke:#000000;stroke-width:2.2;stroke-dasharray:none"
                d="m 159.61773,129.33708 c 4.80991,-1.69704 7.0459,-7.86416 4.72079,-13.02054 -3.48936,-7.73831 -14.35694,-5.56569 -14.91758,2.98229 -0.44733,6.82036 4.76728,11.95389 10.19679,10.03825 z"
                id="path45"/>
        <path
                style="fill:#f9f9f9;stroke:#000000;stroke-width:2.2;stroke-dasharray:none"
                d="m 122.51834,133.27253 c 8.45115,-2.18435 11.85714,-13.84035 5.93706,-20.31785 -7.22073,-7.90063 -21.137,-2.52809 -21.15802,8.16829 -0.0156,7.95626 7.67966,14.09874 15.22096,12.14956 z"
                id="path44"/>
        <path
                style="fill:#1a1a1a;stroke:none"
                d="m 144.52479,160.23483 c 0.72687,-0.54269 0.738,-0.54295 1.42624,-0.0341 4.56854,3.37767 8.07799,-0.64633 8.87251,-10.1734 0.17802,-2.1346 0.17802,-2.1346 1.19519,-2.53416 1.47734,-0.58031 1.41556,-1.37599 -0.10731,-1.38221 -2.26464,-0.009 -7.51008,-1.53472 -7.28582,-2.11885 0.0418,-0.10877 0.60369,-0.59823 1.24873,-1.08769 7.47062,-5.66863 5.27578,-12.25993 -3.93377,-11.81346 -8.11226,0.39327 -9.37676,5.02102 -3.0215,11.05789 1.09561,1.04072 1.9519,1.92621 1.90287,1.96775 -0.15213,0.12888 -2.65108,0.89323 -4.45478,1.36257 -0.94588,0.24613 -2.85088,0.51977 -4.23333,0.60809 -2.51354,0.16059 -2.51354,0.16059 -2.60053,0.92211 -0.0806,0.70554 -0.0352,0.74851 0.61781,0.58462 1.55719,-0.39083 1.62326,-0.24315 1.82449,4.07817 0.29068,6.24237 0.71954,8.16488 1.98069,8.87901 1.09731,0.62136 5.60323,0.40437 6.56851,-0.31632 z"
                id="path41"/>
        <path
                style="fill:#f9f9f9;stroke:#000000"
                d="m 147.50781,158.41494 c -0.48075,-0.57928 -0.74785,-4.79468 -0.58052,-9.16189 0.12816,-3.34477 0.12816,-3.34477 1.7269,-2.58868 0.87931,0.41585 2.11288,0.83318 2.74127,0.92742 1.34069,0.20104 1.32225,0.084 0.87177,5.5352 -0.39805,4.81663 -0.59961,5.16497 -3.21566,5.55727 -0.92692,0.139 -1.25194,0.0823 -1.54376,-0.26932 z"
                id="path43"/>
        <path
                style="fill:#f9f9f9;stroke:#000000"
                d="m 140.19635,158.63754 c -2.10909,-0.43153 -2.99475,-10.47149 -0.95368,-10.81097 1.28852,-0.21431 4.56467,-1.04004 5.15938,-1.30038 0.80533,-0.35254 0.46721,10.83382 -0.35092,11.60975 -0.39611,0.37566 -2.88647,0.69972 -3.85478,0.5016 z"
                id="path42"/>
        <ellipse
                style="fill:#000000;stroke:none;stroke-width:0.166665"
                id="path69-1"
                cx="97.928307"
                cy="173.1226"
                rx="2.8851204"
                ry="4.2921867"
                transform="rotate(-24.240713)"/>
        <ellipse
                style="fill:#000000;stroke:none;stroke-width:0.203818"
                id="path69-1-9"
                cx="61.80563"
                cy="156.45488"
                rx="3.6010711"
                ry="5.1428814"
                transform="matrix(0.92087891,-0.38984873,0.43193412,0.90190516,0,0)"/>
        <path
                style="fill:#00ffff;fill-opacity:1;stroke:#009f9f;stroke-width:3.1;stroke-linecap:round;stroke-dasharray:none;stroke-opacity:1"
                d="m 160.837,182.94458 c 0,0 -4.96693,2.90061 -6.56298,5.10229 -1.24009,1.71064 -1.64785,3.39218 -1.91332,5.48828 -0.22302,1.76096 -0.26095,3.5795 0.0631,5.32468 0.19143,1.03099 1.09443,2.9493 1.09443,2.9493 0,0 2.27074,-4.34907 3.83705,-6.21188 1.821,-2.16571 4.60022,-4.24227 6.34907,-5.63438 1.74885,-1.39211 4.01019,-2.85556 4.01019,-2.85556"
                id="path71"
                sodipodi:nodetypes="cssscszc"/>
        <path
                style="fill:#00ffff;fill-opacity:1;stroke:#009f9f;stroke-width:3.1;stroke-linecap:round;stroke-dasharray:none;stroke-opacity:1"
                d="m 101.54468,185.36111 c 0,0 5.48484,1.73217 7.52768,3.52705 1.58723,1.39456 2.35625,2.94454 3.07805,4.93027 0.60638,1.66824 1.04495,3.43351 1.11429,5.20717 0.041,1.04781 -0.41613,3.11817 -0.41613,3.11817 0,0 -3.17507,-3.74026 -5.11407,-5.2112 -2.2543,-1.71012 -5.42347,-3.12169 -7.43655,-4.09324 -2.013094,-0.97155 -4.541778,-1.8995 -4.541778,-1.8995"
                id="path71-5"
                sodipodi:nodetypes="cssscszc"/></g></svg>
