<?xml version="1.0" encoding="UTF-8" standalone="no"?>
<!-- Created with Inkscape (http://www.inkscape.org/) -->

<svg
   width="210mm"
   height="297mm"
   viewBox="0 0 210 297"
   version="1.1"
   id="svg1"
   xml:space="preserve"
   inkscape:version="1.3.2 (091e20e, 2023-11-25)"
   sodipodi:docname="projectlogo.svg"
   xmlns:inkscape="http://www.inkscape.org/namespaces/inkscape"
   xmlns:sodipodi="http://sodipodi.sourceforge.net/DTD/sodipodi-0.dtd"
   xmlns="http://www.w3.org/2000/svg"
   xmlns:svg="http://www.w3.org/2000/svg"><sodipodi:namedview
   id="namedview1"
   pagecolor="#ffffff"
   bordercolor="#000000"
   borderopacity="0.25"
   inkscape:showpageshadow="2"
   inkscape:pageopacity="0.0"
   inkscape:pagecheckerboard="0"
   inkscape:deskcolor="#d1d1d1"
   inkscape:document-units="mm"
   inkscape:zoom="0.48756441"
   inkscape:cx="-151.77482"
   inkscape:cy="676.83365"
   inkscape:window-width="1920"
   inkscape:window-height="1016"
   inkscape:window-x="1318"
   inkscape:window-y="27"
   inkscape:window-maximized="1"
   inkscape:current-layer="layer1"
   showgrid="false" />
    <defs
   id="defs1"><inkscape:path-effect
   effect="bspline"
   id="path-effect70"
   is_visible="true"
   lpeversion="1.3"
   weight="33.333333"
   steps="2"
   helper_size="0"
   apply_no_weight="true"
   apply_with_weight="true"
   only_selected="false"
   uniform="false" />
        <inkscape:path-effect
   effect="bspline"
   id="path-effect69"
   is_visible="true"
   lpeversion="1.3"
   weight="33.333333"
   steps="2"
   helper_size="0"
   apply_no_weight="true"
   apply_with_weight="true"
   only_selected="false"
   uniform="false" /><filter
   y="-0.2"
   width="1.2"
   height="1.4"
   x="-0.1"
   inkscape:label="Fire"
   inkscape:menu="Protrusions"
   inkscape:menu-tooltip="Edges of object are on fire"
   style="color-interpolation-filters:sRGB"
   id="filter5076"><feMorphology
   result="result1"
   radius="2.4"
   operator="dilate"
   id="feMorphology5078" />
            <feTurbulence
   baseFrequency="0.09 0.028"
   numOctaves="1"
   id="feTurbulence5080" />
            <feColorMatrix
   result="result2"
   values="2 0 0 0 0 0 2 0 0 0 0 0 0 0 0 0 0 0 1 0"
   id="feColorMatrix5082" />
            <feDisplacementMap
   result="result4"
   scale="10.31941"
   yChannelSelector="G"
   xChannelSelector="R"
   in="result1"
   in2="result2"
   id="feDisplacementMap5084" />
            <feFlood
   result="result3"
   flood-opacity="1"
   flood-color="rgb(255,159,54)"
   id="feFlood5086" />
            <feMorphology
   radius="3.8"
   result="result7"
   in="result4"
   id="feMorphology5088" />
            <feGaussianBlur
   result="result7"
   in="result7"
   stdDeviation="2.4"
   id="feGaussianBlur5090" />
            <feComposite
   result="result5"
   in2="result4"
   in="result3"
   operator="in"
   id="feComposite5092" />
            <feComposite
   operator="out"
   in2="result7"
   id="feComposite5094" />
            <feOffset
   result="result6"
   dy="-7"
   dx="-4.5"
   id="feOffset5096" />
            <feGaussianBlur
   result="result7"
   stdDeviation="4.8"
   id="feGaussianBlur5098" />
            <feComposite
   in="SourceGraphic"
   in2="result6"
   id="feComposite5100" />
            <feComposite
   in2="result7"
   id="feComposite5102" /></filter></defs>
    <g
   inkscape:label="Layer 1"
   inkscape:groupmode="layer"
   id="layer1">
        
        
        
        
        
        
        
        
        
        
        
        
        
        
        
        
        
        
        
        
        
        
        
        
        
        
        
        
        
        
        
        
        
        
        
        <g
   id="g2"
   transform="matrix(0.47844633,0,0,0.47844633,11.828735,4.7031181)"><text
   xml:space="preserve"
   style="font-style:normal;font-weight:normal;line-height:0%;font-family:sans-serif;letter-spacing:0px;word-spacing:0px;fill:#00ff00;fill-opacity:1;stroke:#000000;stroke-width:5;stroke-linecap:butt;stroke-linejoin:miter;stroke-miterlimit:4;stroke-dasharray:none;stroke-opacity:1;filter:url(#filter5076)"
   x="19.473917"
   y="515.22003"
   id="text5060"><tspan
     sodipodi:role="line"
     id="tspan5062"
     x="19.473917"
     y="515.22003"
     style="font-style:normal;font-variant:normal;font-weight:normal;font-stretch:normal;font-size:187.095px;line-height:1.25;font-family:'URW Bookman L';-inkscape-font-specification:'URW Bookman L';fill:#00ff00;stroke:#000000;stroke-width:5;stroke-miterlimit:4;stroke-dasharray:none">2.2.0</tspan></text>
        <path
   style="fill:#00ffff;fill-opacity:1;stroke:#009d9d;stroke-width:6.68646;stroke-dasharray:none;stroke-opacity:1"
   d="m 306.00392,208.21504 c -25.55415,0.27387 -58.49986,13.15992 -90.35594,37.07466 -13.64246,10.24154 -15.71556,11.95563 -16.97128,14.03089 -0.65034,1.07478 -3.09422,3.83818 -5.43046,6.14159 -4.24768,4.18805 -4.24768,4.18805 -1.96619,9.41633 22.57028,51.72219 21.98621,112.73075 -1.45459,151.83643 -2.67892,4.4692 -8.00219,12.15264 -8.26271,11.72919 -12.08227,-19.63986 -15.52182,-28.30997 -19.99414,-41.93886 -0.0859,-0.26164 -0.64995,1.143 -1.01208,2.9727 -0.36213,1.82968 -1.03134,4.73962 -1.48691,6.46594 -0.45556,1.72635 -1.48168,5.70689 -2.28052,8.84566 -0.79886,3.13878 -2.30814,8.40338 -3.3539,11.6991 -1.04577,3.29573 -2.08562,6.89107 -2.31063,7.98964 -0.22502,1.09857 -1.02137,3.15302 -1.77003,4.56549 -0.74864,1.41244 -3.15579,6.49698 -5.34907,11.29895 -0.38724,0.84783 -0.8321,1.64311 -1.23166,2.48229 0.0275,0.023 0.06,0.0479 0.0858,0.0703 0.56028,0.48285 1.27947,1.30792 4.26628,4.38241 16.22263,25.80066 27.47233,38.84477 54.22255,53.66727 15.76694,8.28916 18.30177,10.65119 17.80389,16.59006 -0.9472,11.29799 -11.88195,22.77122 -35.18089,36.91302 -7.63081,4.63171 -7.86409,4.82431 -6.50496,5.35914 2.0543,0.80842 29.87725,0.53323 37.30984,-0.36894 67.29783,-8.16876 129.31141,-53.17585 148.21166,-107.56687 5.62174,-16.17832 5.572,-15.4578 5.572,-80.89501 l 0.096,-89.88336 c -0.84057,-28.7625 -8.64834,-49.238 -26.46901,-69.4088 -8.17897,-9.25761 -20.85044,-13.63345 -36.18294,-13.46912 z"
   id="path70"
   sodipodi:nodetypes="cssssscssssssssccsssssssccscc" />
        <path
   style="fill:#00a1a1;fill-opacity:1;stroke:none;stroke-width:2.15693"
   d="m 198.49857,89.034406 c -5.75586,0.089 -10.02648,1.05631 -11.77713,2.97828 -1.53051,1.68029 -1.53055,1.68022 -11.6991,1.3643 -16.34335,-0.50776 -21.86783,1.41757 -21.86783,7.620694 0,3.18268 1e-5,3.18321 -2.14008,2.84564 -20.60507,-3.25029 -32.03113,1.70476 -27.82103,12.06581 0.78469,1.93114 1.42667,3.7097 1.42672,3.95134 1e-5,0.24166 -4.55834,0.43916 -10.12972,0.43916 -10.85434,0 -14.3128,0.53258 -19.138107,2.95042 -6.137721,3.07547 -6.204559,4.00545 -0.950779,13.02884 4.533655,7.78654 5.390977,6.83541 -7.446802,8.25827 -24.995268,2.7703 -28.620956,9.03486 -14.098891,24.36012 4.292237,4.52963 4.295672,4.45884 -0.283121,5.01358 -19.526885,2.36576 -33.878436,11.87779 -29.010334,19.22728 1.717125,2.59241 3.10282,3.97523 11.005804,10.98128 5.075034,4.49908 5.179442,4.73861 2.282753,5.2432 -7.272803,1.26685 -23.593686,12.55693 -25.779044,17.83287 -1.693508,4.08846 1.990145,8.2588 11.923137,13.49923 9.999303,5.27543 10.480415,5.81151 6.727878,7.49474 -11.030053,4.94767 -26.942167,22.87714 -24.444837,27.54348 1.142054,2.13392 6.999338,4.46118 21.849994,8.68294 5.153224,1.46499 5.196206,0.96402 -0.674349,7.86814 -12.280171,14.44222 -21.28226,34.15528 -16.425111,35.96781 3.306437,1.23387 29.974936,1.05992 35.86639,-0.23407 2.35975,-0.51829 2.175387,0.12768 -2.062055,7.20382 -17.672853,29.51164 -25.619467,61.77228 -22.661429,92.00449 0.711356,7.27028 0.782047,7.32642 6.255272,4.98125 15.653626,-6.70727 34.199995,-20.11892 42.619906,-30.82049 3.554485,-4.51769 3.68823,-4.14402 3.061875,8.53692 -1.124445,22.76509 3.901078,55.31929 11.15071,72.23436 2.97794,6.94822 7.18394,15.08089 7.79903,15.08089 3.368,0 22.91907,-25.76111 28.06956,-36.85515 -0.53971,-1.2053 -0.92813,-2.88802 -1.81457,-3.81975 -0.27589,-0.31036 -0.34448,-0.31002 -0.37897,-0.34442 l -19.01884,28.17883 c -2.28465,2.51103 -4.54899,5.16611 -5.03142,5.90082 -1.12234,1.7092 -1.35532,1.29575 -5.26549,-9.33051 -10.102328,-27.454 -14.383638,-71.20646 -9.436417,-96.44069 1.115677,-5.6908 0.277913,-5.82112 -2.490069,-0.38678 -6.679833,13.11447 -22.76749,28.12349 -41.383791,38.60837 -10.843763,6.10731 -9.737464,7.2806 -9.680521,-10.25788 0.06043,-18.60325 1.152759,-25.48704 6.543966,-41.24447 2.071039,-6.05325 3.402041,-9.22228 8.888017,-21.15446 1.059098,-2.30358 1.926069,-4.29708 1.926069,-4.42952 0,-0.69395 9.164626,-15.34885 11.788277,-18.85053 3.13999,-4.19077 3.883213,-6.25083 2.050907,-5.68459 -10.255115,3.16913 -40.626572,4.98663 -42.149541,2.52239 -1.865896,-3.01905 11.093541,-24.36999 20.643966,-34.01167 3.193421,-3.22389 5.646184,-5.95174 5.451636,-6.06131 -0.194626,-0.10958 -2.407804,-0.64825 -4.91884,-1.19823 -7.711794,-1.68909 -20.857035,-6.62841 -23.919856,-8.98721 -3.152621,-2.42797 13.370183,-17.76173 28.485353,-26.43556 1.582111,-0.9079 0.71814,-1.72223 -4.456265,-4.19991 -10.098076,-4.8353 -19.660262,-12.04937 -18.947509,-14.29506 1.033751,-3.25705 13.322411,-11.26531 23.801701,-15.51111 3.861241,-1.56445 7.237926,-3.05688 7.502543,-3.31601 0.264583,-0.25914 -2.046705,-2.3875 -5.136196,-4.72936 -5.777679,-4.37951 -12.901923,-11.43819 -14.019755,-13.89156 -1.740836,-3.82071 10.139286,-9.38526 26.699729,-12.50498 10.323725,-1.94482 10.14797,-1.8041 6.509404,-5.20307 -1.639999,-1.53202 -3.969407,-4.1979 -5.176322,-5.92423 -1.206906,-1.72632 -3.356358,-4.63802 -4.777279,-6.4704 -5.534932,-7.13765 0.648438,-10.30617 24.145012,-12.3701 10.726711,-0.94223 10.702171,-0.92011 6.678831,-5.8072 -1.40027,-1.70089 -3.354921,-5.00492 -4.343696,-7.34203 -0.988757,-2.33712 -2.054529,-4.56727 -2.36858,-4.95562 -2.605855,-3.22238 3.960716,-4.87328 20.529166,-5.16183 16.14931,-0.28126 15.16086,0.32502 11.84847,-7.26289 -2.62257,-6.00766 -2.60347,-7.19184 0.13599,-8.54472 2.92302,-1.44354 17.57878,-1.8516 24.9676,-0.69553 5.95784,0.93218 6.59175,0.65583 4.93555,-2.15122 -4.67967,-7.931444 9.95656,-12.240744 26.57935,-7.825784 2.58117,0.68554 4.86221,1.246144 5.0682,1.246144 0.2062,0 0.24181,-1.173144 0.0803,-2.607104 -0.38649,-3.42873 0.53338,-3.79415 9.56237,-3.79976 24.20156,-0.0151 52.37644,11.632154 77.04286,31.849294 28.3818,23.82037 56.57213,44.19986 71.93789,79.64775 2.61174,7.01739 2.49576,6.8704 5.06374,6.44587 2.92167,-0.48299 3.37652,-0.7552 2.67399,-1.60171 -0.30898,-0.37231 -1.94413,-3.7517 -3.63258,-7.51034 -23.02769,-51.26128 -90.00153,-97.36366 -118.45341,-106.905904 -13.05814,-4.37946 -26.77713,-6.67216 -36.37021,-6.5239 z"
   id="path40"
   sodipodi:nodetypes="ssssssssssssssscsscssssscssssssccccssssssssssssssssssssssssssssssssssssssccsssscss" />
        <path
   style="fill:#550000;stroke:#000000;stroke-width:2.15693"
   d="m 245.84814,132.97736 c -2.45888,-3.40546 -17.08207,-13.23861 -30.62574,-20.59385 -3.78558,-2.05584 -6.16963,-4.32231 -6.16963,-5.8653 0,-0.44099 -0.51886,-1.8188 -1.15299,-3.06182 -1.48472,-2.9103 -0.67389,-2.9478 10.79709,-0.49934 15.58839,3.32731 34.83987,12.68668 50.70613,24.65147 3.5411,2.67036 3.46244,2.42248 1.14851,3.61906 -1.01618,0.52549 -2.52518,1.68078 -3.35332,2.56731 -1.50573,1.61189 -1.50573,1.61189 -3.14591,0.19983 -4.59894,-3.95928 -9.38472,-4.27814 -12.61901,-0.84076 -2.67459,2.84254 -3.42227,2.81889 -5.58513,-0.1766 z"
   id="path68" />
        <path
   style="fill:#550000;stroke:#000000;stroke-width:2.15693"
   d="m 222.68357,141.23395 c -0.74855,-0.57858 -2.57312,-1.45918 -4.05456,-1.9569 -1.48145,-0.49772 -6.36084,-3.32734 -10.84308,-6.28803 -4.48222,-2.9607 -12.80627,-7.74071 -18.49785,-10.62223 -11.61477,-5.88034 -11.50233,-5.79031 -13.61321,-10.89803 -0.84317,-2.04021 -1.92737,-4.32617 -2.40933,-5.0799 -1.60673,-2.51269 14.09978,-0.85551 24.37346,2.57161 5.67402,1.89276 8.53944,3.27172 19.97409,9.61236 14.94551,8.28744 31.73872,21.6467 21.82881,17.36514 -4.87071,-2.10439 -10.54683,-0.42893 -13.05685,3.8541 -1.65648,2.82659 -1.82502,2.89224 -3.70148,1.44188 z"
   id="path67" />
        <path
   style="fill:#550000;stroke:#000000;stroke-width:2.15693"
   d="m 191.36143,153.00701 c -2.66795,-1.88603 -8.06097,-4.97229 -11.98445,-6.85836 -32.46344,-15.60558 -30.71607,-14.32602 -36.30177,-26.583 -2.11221,-4.63494 -1.57803,-4.73653 15.15994,-2.88304 13.06249,1.44647 34.21195,10.59491 47.21832,20.42482 6.06482,4.58365 6.06003,4.56878 2.01924,6.2709 -5.95238,2.50734 -8.90453,5.81804 -10.09407,11.32003 -0.50186,2.32112 -0.23515,2.39609 -6.01721,-1.69135 z"
   id="path66" />
        <path
   style="fill:#800000;stroke:#000000;stroke-width:2.15693"
   d="m 169.82627,171.65259 c -1.64328,-0.44255 -4.22246,-1.4303 -5.73147,-2.19497 -1.50902,-0.76468 -7.612,-3.37029 -13.56215,-5.79024 -5.95015,-2.41995 -13.00135,-5.2871 -15.6693,-6.37144 -10.46916,-4.25495 -11.6495,-5.21865 -17.68563,-14.43935 -1.33557,-2.04021 -3.18542,-4.83414 -4.11074,-6.20874 -5.7962,-8.61034 28.76561,-3.69453 50.61609,7.19926 21.23134,10.58509 22.76976,11.68617 18.841,13.48482 -6.76267,3.09604 -8.85396,5.86426 -8.85396,11.71988 0,1.9143 -0.19261,3.46365 -0.42802,3.44299 -0.23541,-0.0207 -1.77252,-0.39965 -3.41582,-0.84221 z"
   id="path65" />
        <path
   style="fill:#800000;stroke:#000000;stroke-width:2.15693"
   d="m 140.85556,189.62189 c -4.3943,-1.23689 -10.81453,-3.01915 -14.26719,-3.96057 -23.72251,-6.4683 -23.91237,-6.57136 -35.163151,-19.08866 -7.066628,-7.86211 -7.0882,-7.33779 0.366409,-8.91258 17.426862,-3.68145 30.363532,-1.57289 50.767792,8.2747 18.23433,8.80033 16.60742,7.5482 13.7611,10.59115 -4.27843,4.57398 -4.96912,6.66142 -4.10751,12.41371 0.57109,3.81281 -0.0936,3.85274 -11.35745,0.68225 z"
   id="path64" />
        <path
   style="fill:#800000;stroke:#000000;stroke-width:2.15693"
   d="m 125.44699,213.88243 c -0.50934,-0.19628 -15.42055,-1.66976 -31.525966,-3.1151 -3.214755,-0.28849 -6.424873,-0.83232 -7.133603,-1.20847 -5.292697,-2.80912 -23.555639,-17.25386 -22.984011,-18.17877 0.975734,-1.57877 16.388011,-5.45439 24.834216,-6.24489 11.931494,-1.11669 21.974304,0.6779 39.662804,7.08755 4.08042,1.47859 7.86835,2.81928 8.41763,2.9793 1.27573,0.37166 1.26489,0.44976 -0.36378,2.62132 -3.70262,4.93678 -4.2899,7.57949 -2.64586,11.90623 0.62031,1.63252 1.0157,3.08037 0.87865,3.21741 -0.76589,0.76588 -7.73098,1.47873 -9.14008,0.93542 z"
   id="path63" />
        <path
   style="fill:#800000;stroke:none;stroke-width:2.15693"
   d="m 219.39261,225.64804 c -1.18522,-0.73252 10.73606,-9.19087 21.04799,-14.93395 41.3318,-23.01915 101.06979,-22.71703 105.22801,0.53218 0.33587,1.87785 0.28973,1.85185 -3.29147,-1.85487 -13.74752,-14.22945 -48.25032,-17.15774 -75.97024,-6.4477 -4.08042,1.57655 -9.63406,3.68271 -12.34142,4.68037 -2.70738,0.99765 -7.97197,3.57438 -11.69911,5.72607 -3.72712,2.15167 -8.06067,4.60037 -9.63007,5.44157 -1.56937,0.84119 -5.06928,2.81726 -7.77751,4.39128 -2.70827,1.57402 -5.21303,2.68329 -5.56618,2.46505 z"
   id="path62" />
        <path
   style="fill:#00ffff;stroke:#000000;stroke-width:2.15693"
   d="m 282.10082,179.4244 c 0,-0.60367 0.59073,-1.82352 1.31275,-2.71077 1.41643,-1.74062 8.38895,-12.47797 8.38895,-12.91861 0,-1.07884 -20.34511,1.15493 -27.73628,3.04527 -2.42264,0.61961 -5.05517,1.12657 -5.85006,1.12657 -0.88344,0 2.94718,2.19788 9.85432,5.65408 6.21476,3.10975 11.58013,5.93465 11.92305,6.27757 0.98221,0.98222 2.10727,0.72909 2.10727,-0.47411 z"
   id="path61" />
        <path
   style="fill:#00ffff;stroke:#000000;stroke-width:2.15693"
   d="m 244.95491,185.94353 c 0.97767,-3.45267 2.70936,-8.40289 3.84818,-11.00051 2.79383,-6.3726 1.40633,-6.00243 -22.48702,5.99926 -15.89696,7.98509 -15.9137,8.10603 -1.28404,9.28843 9.10501,0.73588 13.98144,1.51787 15.96308,2.55982 1.79709,0.9449 1.71144,1.09301 3.9598,-6.847 z"
   id="path60" />
        <path
   style="fill:#00ffff;stroke:#000000;stroke-width:2.15693"
   d="m 215.7491,216.13976 c 2.43765,-1.75397 6.22975,-4.23002 8.42689,-5.50234 2.19716,-1.27233 5.66407,-3.39702 7.70429,-4.72157 3.59061,-2.33104 14.98634,-8.02831 21.59517,-10.79643 4.04155,-1.6928 18.40691,-6.19484 23.93367,-7.5007 2.28469,-0.53982 4.27237,-1.17305 4.41705,-1.40716 0.46446,-0.75148 -26.76576,-14.91369 -27.30066,-14.19884 -1.66948,2.23106 -7.20844,19.24674 -7.5071,23.06182 -0.22642,2.89212 -0.97395,3.03889 -7.59799,1.49194 -5.13123,-1.19832 -21.1096,-3.48935 -24.33588,-3.48935 -1.98528,0 -3.10572,5.63267 -4.11511,20.68742 -0.43931,6.55233 -0.78615,6.37998 4.77967,2.37521 z"
   id="path59" />
        <path
   style="fill:#800000;stroke:#000000;stroke-width:2.15693"
   d="m 202.62978,230.02918 c -0.15315,-0.70623 -0.44889,-1.68524 -0.65716,-2.17557 -0.27684,-0.65182 0.62038,-1.57242 3.33716,-3.42413 5.25508,-3.58174 5.26181,-3.57306 -2.81993,-3.63478 -5.13618,-0.0393 -5.13618,-0.0393 -5.31676,-1.60861 -0.19693,-1.71184 -0.69206,-1.59484 7.88484,-1.86325 1.99743,-0.0626 1.99743,-0.0626 2.38016,-6.01921 0.21051,-3.27619 0.69509,-8.72504 1.07684,-12.10858 0.86772,-7.6905 1.10229,-7.57347 -5.25865,-2.62367 -9.82821,7.64787 -11.59327,9.10956 -14.89899,12.33804 -2.5368,2.47754 -3.44434,3.05776 -3.96627,2.53583 -0.37224,-0.37224 -1.13905,-0.67681 -1.70404,-0.67681 -3.92261,0 17.7943,-19.87903 32.08654,-29.37107 28.59516,-18.99118 67.67734,-28.08504 91.87802,-21.37869 6.47286,1.79372 13.70302,6.6727 10.74943,7.25383 -0.45197,0.0889 -1.23564,1.62086 -2.23822,3.1214 -4.65002,6.95963 -0.28319,10.93801 3.54847,8.45478 3.87022,-2.50824 6.31167,-2.80531 9.14209,1.64236 2.09204,3.28742 2.06858,3.36604 -0.90479,3.03089 -5.64547,2.15471 -8.70577,1.83368 -0.33405,5.02637 7.46749,2.84656 9.31584,3.74964 10.62908,5.19315 1.11461,1.22522 2.49673,3.4806 2.49673,4.07427 0,0.13654 -2.92163,-1.00905 -6.49249,-2.54561 -35.00869,-15.06419 -82.44391,-3.08015 -125.25559,31.64458 -2.24158,1.81816 -4.07563,3.55162 -4.07563,3.85214 0,1.09393 -1.01587,0.51158 -1.28679,-0.73766 z"
   id="path58" />
        <path
   style="fill:#d40000;stroke:#000000;stroke-width:2.15693"
   d="m 76.705819,242.112 c -8.560661,-1.68239 -26.689321,-12.65068 -24.243598,-14.66797 10.667173,-8.79851 31.575807,-13.20724 50.705389,-10.69156 17.00016,2.23562 19.67704,3.05177 18.5014,5.64076 -1.55586,3.42626 -1.42299,7.8167 0.34297,11.33266 2.20983,4.39965 1.1954,4.9075 -12.28145,6.14832 -3.92349,0.36123 -11.972931,1.15089 -17.88767,1.75479 -11.735434,1.19818 -11.531143,1.19166 -15.137041,0.483 z"
   id="path57" />
        <path
   style="fill:#00ffff;stroke:#000000;stroke-width:2.15693"
   d="m 179.73315,256.53291 c 7.48801,-3.82007 11.19749,-15.58362 6.96295,-22.08091 -5.98601,-9.18459 -16.37829,-11.03112 -24.07085,-4.27695 -13.36008,11.73029 1.35149,34.39619 17.1079,26.35786 z"
   id="path56" />
        <path
   style="fill:#d4aa00;stroke:#000000;stroke-width:2.15693"
   d="m 167.1072,264.51548 c -11.81142,-3.53182 -19.41581,-16.83287 -16.7638,-29.32203 5.31752,-25.04195 40.04965,-25.45438 45.33074,-0.53826 4.08016,19.25002 -11.07454,35.09083 -28.56694,29.86029 z"
   id="path55" />
        <path
   style="fill:#ffff00;stroke:#000000;stroke-width:1.56446"
   d="m 169.20826,257.56406 c -8.44859,-2.59762 -13.88796,-12.38029 -11.991,-21.56588 3.8036,-18.41793 28.64719,-18.72126 32.42471,-0.39589 2.9185,14.15808 -7.92153,25.80872 -20.43371,21.96177 z"
   id="path55-8" />
        <path
   style="fill:#1a1a1a;fill-opacity:1;stroke:#000000;stroke-width:0.815142"
   d="m 176.12536,251.89968 c -4.39758,-1.35484 -7.22884,-6.45714 -6.24145,-11.24805 1.97981,-9.60618 14.91119,-9.76438 16.87742,-0.20642 1.51911,7.38438 -4.12324,13.46098 -10.63597,11.45453 z"
   id="path55-8-5" />
        <path
   style="fill:#00ffff;stroke:#00aaaa;stroke-width:3.66679;stroke-dasharray:none;stroke-opacity:1"
   d="m 371.58725,266.19588 c -0.13157,-0.46691 -0.50638,-2.39547 -0.83272,-4.28572 -1.49014,-8.63177 -3.9465,-18.95463 -11.15403,-28.38956 -6.56464,-8.59337 -9.66189,-10.28694 -9.76889,-11.16844 -0.22793,-1.87793 9.7333,-5.18709 14.73037,-5.00744 19.62757,0.70573 27.25625,17.83488 16.89442,37.93416 -2.28363,4.42966 -9.45998,12.36796 -9.86915,10.917 z"
   id="path54"
   sodipodi:nodetypes="sssssss" />
        <path
   style="fill:#00a9a9;fill-opacity:1;stroke:none;stroke-width:1.31478"
   d="m 370.1909,254.39872 c -0.0852,-0.26041 -0.29218,-1.33881 -0.52973,-2.38296 -0.9952,-4.37471 -2.77948,-8.52218 -7.30103,-15.8937 -3.39326,-5.53215 -6.42545,-5.86755 -6.4912,-6.35646 -0.13998,-1.04152 6.58285,-2.67671 9.9424,-2.48105 13.19563,0.76862 18.20523,10.37565 11.0943,21.27561 -1.56718,2.40225 -6.44981,6.64771 -6.71474,5.83856 z"
   id="path54-0"
   sodipodi:nodetypes="sssssss" />
        <path
   style="fill:#d40000;stroke:#000000;stroke-width:2.15693"
   d="m 72.373004,276.60365 c -8.959032,-1.25602 -25.395616,-5.99329 -25.395616,-7.3194 0,-1.49731 14.266456,-11.68567 20.830127,-14.87576 14.381501,-6.9898 50.824085,-12.20532 49.349195,-7.06268 -1.44169,5.0269 -0.55852,9.05258 2.67498,12.19289 2.61252,2.53727 1.87961,3.475 -4.05417,5.18725 -8.78017,2.5336 -21.792845,6.66824 -28.332209,9.00225 -6.984747,2.493 -11.566088,3.36701 -15.072307,2.87545 z"
   id="path53" />
        <path
   style="fill:#d40000;stroke:#000000;stroke-width:2.15693"
   d="m 50.173997,315.29788 c -1.113101,-1.80103 12.054598,-19.20785 18.321862,-24.22025 8.836596,-7.0673 26.543959,-14.95042 41.257211,-18.36726 6.69054,-1.55374 6.68937,-1.55431 6.93578,3.32542 0.19995,3.95907 0.34226,4.34762 2.44547,6.67562 2.23317,2.47186 2.23317,2.47186 0.60775,3.64321 -5.11645,3.68716 -10.75162,8.04955 -14.17002,10.96953 -15.655907,13.37314 -26.135162,17.68741 -44.385899,18.27349 -7.568069,0.24304 -10.729869,0.15702 -11.012154,-0.29976 z"
   id="path52" />
        <path
   style="fill:#f9f9f9;stroke:#000000;stroke-width:2.15693"
   d="m 166.2637,386.49711 c 0.007,-0.44705 0.54756,-1.96848 1.20148,-3.38092 5.89474,-12.73256 4.84969,-17.42523 -1.85554,-8.33203 -2.90504,3.93961 -2.42256,-4.17664 0.61252,-10.30431 2.23888,-4.52013 5.24551,-12.18081 4.78069,-12.18081 -0.78432,0 -3.99602,2.06351 -5.92714,3.80817 -3.95669,3.57461 -3.44537,-6.73217 0.59907,-12.0756 3.07065,-4.05688 8.56601,-12.43484 8.56601,-13.05929 0,-0.5594 -4.35137,1.74552 -8.13229,4.30767 -1.8048,1.22303 -3.28029,2.02152 -3.27886,1.77442 0.082,-14.26667 10.30214,-58.78544 14.55841,-63.41637 0.76075,-0.8277 1.06171,9.03551 1.77325,58.11623 0.19801,13.65372 0.52007,27.98185 0.71581,31.84029 0.39086,7.70428 -0.19089,9.98456 -3.02069,11.83868 -0.74716,0.48956 -2.77555,2.73949 -4.50752,4.99987 -3.75331,4.89839 -6.10334,7.24024 -6.0852,6.064 z"
   id="path51" />
        <path
   style="fill:#b3b3b3;stroke:#000000;stroke-width:2.15693"
   d="m 82.204179,388.39506 c -2.878484,-11.99556 -3.057597,-10.91297 3.755094,-22.69719 3.262356,-5.64302 7.037028,-12.18612 8.388154,-14.54021 1.351125,-2.35408 4.25875,-7.10506 6.461373,-10.55772 2.20262,-3.45267 5.33003,-8.46046 6.94977,-11.12841 2.38109,-3.92197 24.88831,-37.32585 25.73109,-38.18854 0.71558,-0.73247 0.6938,0.68361 -0.0489,3.1849 -0.46646,1.57074 -1.24776,5.01713 -1.73624,7.65868 -1.29255,6.98972 -2.31611,9.80905 -5.99113,16.50188 -4.91199,8.94556 -10.82571,22.56852 -13.68852,31.5331 -1.47657,4.6237 -1.53418,4.60294 -4.27057,-1.5382 -3.37536,-7.57516 -4.31585,-1.46385 -1.64515,10.69039 0.96815,4.40603 0.96815,4.40603 -0.63591,8.49453 -1.83161,4.66844 -1.92668,4.63491 -5.907793,-2.08331 -2.328539,-3.92947 -2.182904,-4.06901 -2.992958,2.86745 -0.874155,7.48539 -5.546915,20.27014 -5.621245,15.3798 -0.05762,-3.79325 -0.636054,-7.1336 -1.235255,-7.1336 -0.808493,0 -2.630001,4.11877 -3.028584,6.84826 -1.708866,11.70225 -2.584198,12.62154 -4.483112,4.70819 z"
   id="path50" />
        <path
   style="fill:#f9f9f9;stroke:#000000;stroke-width:2.15693"
   d="m 62.956665,396.81269 c 0.840148,-3.68675 1.186255,-7.52686 2.282744,-11.10157 -0.53872,-5.11072 7.385222,-11.28698 5.25413,-10.81925 -2.557845,2.03099 -7.689728,3.84165 -7.980101,5.37087 l 7.219831,-13.60885 c 1.883658,-0.96437 13.887399,-15.31814 8.410723,-14.95491 -2.417035,-0.18377 -9.437928,2.6923 -5.805959,-2.07156 1.698383,-4.86955 5.864581,-8.03929 10.918417,-8.70658 2.720244,-1.21261 10.451522,-1.51515 9.865524,-4.43657 -2.921125,-1.85907 -10.789036,1.45239 -10.58201,-2.76335 6.749918,-10.10878 14.487256,-19.63855 23.569776,-27.76481 7.76884,-6.86314 15.65562,-13.97473 25.08047,-18.48865 2.09746,-1.15633 4.06781,-0.87442 1.35938,1.10379 -7.11113,7.60674 -12.63771,16.52457 -18.85428,24.84791 -6.87361,9.47008 -12.5855,19.68962 -18.760752,29.60812 -5.167663,9.35471 -10.72294,18.48694 -15.668516,27.96325 l -9.722105,17.35345 c -1.7276,2.59218 -3.231852,8.17906 -4.907589,7.81967 1.653474,1.94457 -2.298904,6.12696 -1.679683,0.64904 z"
   id="path49"
   sodipodi:nodetypes="ccccccccccccccccccc" />
        <path
   style="fill:#b3b3b3;stroke:#000000;stroke-width:2.15693"
   d="m 181.88467,415.78806 c 0.21504,-4.94358 0.63977,-12.84048 0.9439,-17.54864 0.3041,-4.70817 0.38395,-11.83464 0.17752,-15.83659 0.80858,-14.22648 -0.25523,-31.05898 -0.42671,-47.22443 -0.18895,-19.61739 -0.51298,-42.02401 -0.71992,-49.7925 -0.34395,-12.9131 -0.29522,-14.12453 0.56809,-14.12453 0.51937,0 0.9459,0.44941 0.94782,0.9987 0.002,0.54928 0.41391,1.76913 0.91551,2.71077 6.56571,12.32589 19.19295,62.49031 15.72987,62.49031 -0.11907,0 -1.43984,-1.09143 -2.93491,-2.42541 -3.01712,-2.69202 -9.43369,-6.55996 -8.99773,-5.42386 0.15314,0.39895 3.1874,4.57531 6.74291,9.28082 5.91979,7.83447 9.65729,18.54253 6.47202,18.54253 -0.14084,0 -1.67,-1.15173 -3.39824,-2.55942 -3.11092,-2.53385 -6.45621,-4.56615 -6.85684,-4.16555 -0.1141,0.11411 1.86976,4.02699 4.40856,8.6953 4.61597,8.48785 4.61597,8.48785 4.30171,12.53244 -0.43484,5.59603 -0.84599,6.5467 -2.05293,4.74672 -1.97165,-2.94047 -6.22597,-7.34671 -6.5645,-6.79895 -0.67068,1.08519 1.45118,8.37609 3.69026,12.68016 3.14275,6.04102 -4.23774,27.45991 -12.97368,42.21046 -0.19994,0 -0.18765,-4.04473 0.0274,-8.98833 z"
   id="path48"
   sodipodi:nodetypes="csccssscssssssssssssccc" />
        <path
   style="fill:#f9f9f9;stroke:#000000;stroke-width:2.15693"
   d="m 109.51121,430.10546 c -0.17557,-0.45776 1.17883,-2.67809 3.13695,-5.14217 2.8264,-3.55673 7.37729,-11.23219 7.37729,-12.44242 0,-1.46702 -5.4176,1.21079 -8.62768,4.26448 -1.32065,1.25629 -2.52297,2.28417 -2.67181,2.28417 -0.4081,0 0.44872,-10.53844 1.01827,-12.52435 0.47959,-1.67218 10.0321,-15.1899 11.72997,-16.599 4.07009,-3.37789 -6.28338,-0.0595 -10.73184,3.43953 -1.91492,1.50627 -1.9548,1.21111 -0.71323,-5.27726 0.94569,-4.94202 0.62417,-4.56206 13.84847,-16.36626 4.59645,-4.10286 6.02852,-5.74663 5.00654,-5.74663 -0.89446,0 -8.48433,3.18658 -12.08997,5.07595 -4.99625,2.61804 -4.89675,3.6021 -1.00357,-9.9268 6.78686,-23.58455 19.12361,-48.36378 29.82487,-59.90539 3.8152,-4.11479 3.73686,-3.3155 -1.97501,20.15124 -6.86902,28.22087 -13.95485,65.14512 -16.17107,84.26781 -0.78778,6.7972 -2.05901,10.37155 -3.84842,10.82067 -0.69514,0.1745 -2.23793,1.52105 -3.4284,2.99237 -4.6811,5.78545 -10.36897,11.44813 -10.68136,10.63406 z"
   id="path47" />
        <path
   style="fill:#b3b3b3;stroke:#000000;stroke-width:2.15693"
   d="m 119.65864,474.14091 c 0.19002,-0.62777 1.00138,-5.12194 1.80277,-9.98705 0.80138,-4.86511 1.94227,-11.41376 2.53528,-14.55253 0.59302,-3.13879 1.48808,-9.09791 1.98905,-13.24252 0.50097,-4.14458 1.57256,-10.43644 2.38127,-13.98185 0.80875,-3.54543 1.53703,-7.85867 1.61844,-9.58501 0.0813,-1.72632 1.20548,-8.40338 2.498,-14.83787 1.29252,-6.43452 2.75744,-14.26721 3.25539,-17.406 1.18979,-7.4995 5.91038,-30.98 9.46548,-47.08174 1.55929,-7.06227 3.73615,-17.18908 4.8375,-22.50401 2.8033,-13.52844 2.94156,-13.63131 5.42136,-4.03297 1.21421,4.69973 1.30461,6.00909 1.06397,15.40857 -0.14473,5.6498 -0.26213,20.93338 -0.26104,33.96349 0.002,23.69112 0.002,23.69112 -4.73974,19.0549 -8.6758,-8.48271 -9.62809,-8.0238 -4.57049,2.20257 7.99475,16.16523 7.64431,14.85149 5.90361,22.13141 -2.43909,10.20062 -2.14947,9.87052 -5.20617,5.9341 -5.45878,-7.02981 -6.69487,-5.03374 -2.18178,3.52318 2.73398,5.18368 3.6811,9.4909 2.66951,12.14 -0.46705,1.22303 -0.74134,0.84441 -2.68741,-3.70947 -3.36421,-7.87228 -3.23082,-7.6972 -4.07755,-5.35148 -0.98917,2.74041 -0.95912,10.30599 0.06,15.11765 -0.0498,16.02622 -9.61262,30.33745 -18.46563,43.08716 -3.56116,4.99176 -3.77148,5.22734 -3.31178,3.70947 z"
   id="path46"
   sodipodi:nodetypes="ssssssssssscssssssssscss" />
        <path
   style="fill:#00ffff;fill-opacity:1;stroke:#009f9f;stroke-width:6.68646;stroke-linecap:round;stroke-dasharray:none;stroke-opacity:1"
   d="m 343.94418,398.06615 c 0,0 -10.71332,6.25642 -14.15589,11.00529 -2.67479,3.68973 -3.5543,7.31669 -4.12691,11.83784 -0.48103,3.79827 -0.56284,7.72073 0.13611,11.48496 0.4129,2.22378 2.36061,6.36144 2.36061,6.36144 0,0 4.89783,-9.38065 8.27625,-13.3986 3.92777,-4.67129 9.92235,-9.15027 13.6945,-12.15297 3.77215,-3.00268 8.6497,-6.15924 8.6497,-6.15924"
   id="path71"
   sodipodi:nodetypes="cssscszc" />
        <path
   style="fill:#00ffff;fill-opacity:1;stroke:#009f9f;stroke-width:6.68646;stroke-linecap:round;stroke-dasharray:none;stroke-opacity:1"
   d="m 216.05475,403.27844 c 0,0 11.83042,3.73618 16.2367,7.6076 3.42353,3.00797 5.08226,6.35117 6.63913,10.63425 1.30792,3.59828 2.25389,7.40584 2.40345,11.23151 0.0884,2.26005 -0.89757,6.72567 -0.89757,6.72567 0,0 -6.8484,-8.06748 -11.03069,-11.24019 -4.86237,-3.68861 -11.69805,-6.73328 -16.04012,-8.82884 -4.3421,-2.09556 -9.7963,-4.09709 -9.7963,-4.09709"
   id="path71-5"
   sodipodi:nodetypes="cssscszc" />
        <g
   id="g1837"
   transform="matrix(-0.54221314,0.03212708,0.03212708,0.54221314,402.43159,233.26934)"
   style="stroke:#00cbcb;stroke-opacity:1"><ellipse
   fill="#ffffff"
   stroke="#000000"
   stroke-width="6"
   stroke-linecap="round"
   stroke-linejoin="round"
   stroke-miterlimit="10"
   cx="144.121"
   cy="91.595001"
   rx="54.900002"
   ry="53.099998"
   id="ellipse260"
   style="stroke:#00cbcb;stroke-opacity:1" />
            <circle
   cx="115.321"
   cy="94.293999"
   r="18.9"
   id="circle262"
   style="stroke:#00cbcb;stroke-opacity:1" />
            <circle
   fill="#ffffff"
   cx="123.421"
   cy="98.793999"
   r="5.4000001"
   id="circle264"
   style="stroke:#00cbcb;stroke-opacity:1" />
            <ellipse
   fill="#ffffff"
   stroke="#000000"
   stroke-width="6"
   stroke-linecap="round"
   stroke-linejoin="round"
   stroke-miterlimit="10"
   cx="281.82101"
   cy="85.293999"
   rx="54.900002"
   ry="53.099998"
   id="ellipse266"
   style="stroke:#00cbcb;stroke-opacity:1" />
            <circle
   cx="253.021"
   cy="87.995003"
   r="18.9"
   id="circle268"
   style="stroke:#00cbcb;stroke-opacity:1" />
            <circle
   fill="#ffffff"
   cx="261.121"
   cy="92.495003"
   r="5.4000001"
   id="circle270"
   style="stroke:#00cbcb;stroke-opacity:1" />
            <path
   fill="#ffffff"
   stroke="#000000"
   stroke-width="6"
   stroke-linecap="round"
   stroke-linejoin="round"
   stroke-miterlimit="10"
   d="m 214.968,170.343 c -10.784,0.188 -12.401,4.999 -21.685,6.657 -0.328,5.727 -0.745,13.566 -1.163,22.896 -0.9,20.1 24.6,15.6 24.6,3.6 0,-9.129 0,-25.714 0,-33.132 -0.56,-0.021 -1.137,-0.031 -1.752,-0.021 z"
   id="path272"
   style="stroke:#00cbcb;stroke-opacity:1" />
            <path
   fill="#ffffff"
   stroke="#000000"
   stroke-width="6"
   stroke-linecap="round"
   stroke-linejoin="round"
   stroke-miterlimit="10"
   d="m 216.72,203.495 c 0,12 25.5,16.5 24.6,-3.6 -0.429,-9.582 -0.857,-17.59 -1.189,-23.353 -11.689,-0.533 -13.115,-5.813 -23.411,-6.179 0,7.417 0,24.002 0,33.132 z"
   id="path274"
   style="stroke:#00cbcb;stroke-opacity:1" />
            <path
   fill="#ac967b"
   stroke="#000000"
   stroke-width="6"
   stroke-linecap="round"
   stroke-linejoin="round"
   stroke-miterlimit="10"
   d="m 254.674,150.297 c -4.354,-4.685 -9.521,-7.238 -16.425,-8.471 -3.664,5.366 -12.791,9.169 -23.479,9.169 -10.278,0 -19.112,-3.518 -23.034,-8.56 -7.391,1.417 -12.753,4.185 -17.15,9.26 -8.627,9.959 -4.437,24.891 7.156,25.695 4.957,0.344 8.624,0.131 11.541,-0.391 9.284,-1.658 10.901,-6.469 21.685,-6.657 0.615,-0.01 1.192,0 1.752,0.02 10.295,0.366 11.721,5.646 23.411,6.179 2.312,0.105 5.024,0.026 8.289,-0.316 11.559,-1.207 15.225,-16.276 6.254,-25.928 z"
   id="path276"
   style="stroke:#00cbcb;stroke-opacity:1" />
            <path
   d="m 214.771,150.995 c 10.688,0 19.814,-3.803 23.479,-9.169 1.107,-1.622 1.722,-3.385 1.722,-5.231 0,-7.953 -11.281,-14.4 -25.2,-14.4 -13.917,0 -25.2,6.447 -25.2,14.4 0,2.08 0.778,4.054 2.166,5.84 3.92,5.042 12.755,8.56 23.033,8.56 z"
   id="path278"
   style="stroke:#00cbcb;stroke-opacity:1" /></g></g></g></svg>
